<?xml version="1.0" encoding="UTF-8"?>
<svg width="16px" height="16px" viewBox="0 0 16 16" version="1.1" xmlns="http://www.w3.org/2000/svg" xmlns:xlink="http://www.w3.org/1999/xlink">
    <!-- Generator: Sketch 52.5 (67469) - http://www.bohemiancoding.com/sketch -->
    <title>tc</title>
    <desc>Created with Sketch.</desc>
    <g id="tc" stroke="none" stroke-width="1" fill="none" fill-rule="evenodd">
        <path d="M15.1987329,7.02382671 L15.4548175,7.17015644 C15.9796852,7.47051745 16.1384154,8.10012034 15.8082567,8.57954272 C15.7193678,8.70854392 15.5987329,8.81829122 15.4548175,8.90108303 L8.59132546,12.8231047 C8.22518789,13.0310469 7.76169583,13.0310469 7.39767466,12.8231047 L0.525716992,8.89338147 C0.00084926734,8.59302046 -0.157880891,7.96341757 0.172277839,7.48399519 C0.261166728,7.35499398 0.381801648,7.24524669 0.525716992,7.16245487 L0.781801648,7.01612515 L7.39555826,10.7995187 C7.76169583,11.0074609 8.22518789,11.0074609 8.58920906,10.7995187 L15.1966165,7.02575211 L15.1987329,7.02382671 Z M15.1987329,10.0293622 L15.4548175,10.1756919 C15.9796852,10.4760529 16.1384154,11.1056558 15.8082567,11.5850782 C15.7193678,11.7140794 15.5987329,11.8238267 15.4548175,11.9066185 L8.59132546,15.8286402 C8.22518789,16.0365824 7.76169583,16.0365824 7.39767466,15.8286402 L0.525716992,11.898917 C0.00084926734,11.598556 -0.157880891,10.9689531 0.172277839,10.4895307 C0.261166728,10.3605295 0.381801648,10.2507822 0.525716992,10.1679904 L0.781801648,10.0216606 L7.39555826,13.8031288 C7.76169583,14.011071 8.22518789,14.011071 8.58920906,13.8031288 L15.1966165,10.0293622 L15.1987329,10.0293622 Z M8.58285985,0.159807461 L15.4527011,4.08953069 C15.9775688,4.3898917 16.136299,5.01949458 15.8061403,5.49891697 C15.7172514,5.62791817 15.5966165,5.73766546 15.4527011,5.82045728 L8.59132546,9.74055355 C8.22518789,9.94849579 7.76169583,9.94849579 7.39767466,9.74055355 L0.525716992,5.80890493 C0.00084926734,5.50854392 -0.157880891,4.87894103 0.172277839,4.39951865 C0.261166728,4.27051745 0.381801648,4.16077016 0.525716992,4.07797834 L7.39132546,0.155956679 C7.75746302,-0.0519855596 8.22095509,-0.0519855596 8.58497625,0.155956679 L8.58285985,0.159807461 Z" fill="#868686" fill-rule="nonzero"></path>
    </g>
</svg>